<?xml version="1.0" encoding="UTF-8" standalone="no"?>
<!-- Created with Inkscape (http://www.inkscape.org/) -->

<svg
   xmlns:dc="http://purl.org/dc/elements/1.1/"
   xmlns:cc="http://creativecommons.org/ns#"
   xmlns:rdf="http://www.w3.org/1999/02/22-rdf-syntax-ns#"
   xmlns:svg="http://www.w3.org/2000/svg"
   xmlns="http://www.w3.org/2000/svg"
   xmlns:sodipodi="http://sodipodi.sourceforge.net/DTD/sodipodi-0.dtd"
   xmlns:inkscape="http://www.inkscape.org/namespaces/inkscape"
   width="133.18617mm"
   height="95.94236mm"
   viewBox="0 0 471.91951 339.95324"
   id="svg2"
   version="1.1"
   inkscape:version="0.91 r13725"
   sodipodi:docname="404-indrakusuma.svg">
  <defs
     id="defs4">
    <clipPath
       id="clipPath4152"
       clipPathUnits="userSpaceOnUse">
      <path
         inkscape:connector-curvature="0"
         id="path4154"
         d="M 0,500 500,500 500,0 0,0 0,500 Z" />
    </clipPath>
    <clipPath
       id="clipPath4160"
       clipPathUnits="userSpaceOnUse">
      <path
         inkscape:connector-curvature="0"
         id="path4162"
         d="m 68.1396,406.421 362.9814,0 0,-217.801 -362.9814,0 0,217.801 z" />
    </clipPath>
    <clipPath
       id="clipPath4176"
       clipPathUnits="userSpaceOnUse">
      <path
         inkscape:connector-curvature="0"
         id="path4178"
         d="m 65.6978,421.343 377.5352,0 0,-229.625 -377.5352,0 0,229.625 z" />
    </clipPath>
    <clipPath
       id="clipPath4400"
       clipPathUnits="userSpaceOnUse">
      <path
         inkscape:connector-curvature="0"
         id="path4402"
         d="M 0,500 500,500 500,0 0,0 0,500 Z" />
    </clipPath>
    <clipPath
       id="clipPath4420"
       clipPathUnits="userSpaceOnUse">
      <path
         inkscape:connector-curvature="0"
         id="path4422"
         d="M 0,500 500,500 500,0 0,0 0,500 Z" />
    </clipPath>
  </defs>
  <sodipodi:namedview
     id="base"
     pagecolor="#ffffff"
     bordercolor="#666666"
     borderopacity="1.0"
     inkscape:pageopacity="0.0"
     inkscape:pageshadow="2"
     inkscape:zoom="0.7"
     inkscape:cx="121.36118"
     inkscape:cy="144.11809"
     inkscape:document-units="px"
     inkscape:current-layer="layer1"
     showgrid="false"
     fit-margin-top="0"
     fit-margin-left="0"
     fit-margin-right="0"
     fit-margin-bottom="0"
     inkscape:window-width="1366"
     inkscape:window-height="702"
     inkscape:window-x="0"
     inkscape:window-y="24"
     inkscape:window-maximized="1" />
  <metadata
     id="metadata7">
    <rdf:RDF>
      <cc:Work
         rdf:about="">
        <dc:format>image/svg+xml</dc:format>
        <dc:type
           rdf:resource="http://purl.org/dc/dcmitype/StillImage" />
        <dc:title></dc:title>
      </cc:Work>
    </rdf:RDF>
  </metadata>
  <g
     inkscape:label="Layer 1"
     inkscape:groupmode="layer"
     id="layer1"
     transform="translate(-141.05057,-223.89734)">
    <g
       style="fill:#3498db"
       id="g4158"
       transform="matrix(1.25,0,0,-1.25,58.928573,750.57647)" />
    <g
       id="g4174"
       transform="matrix(1.25,0,0,-1.25,58.928573,750.57647)" />
    <g
       id="g5634">
      <g
         transform="matrix(1.25,0,0,-1.25,58.928573,750.57647)"
         style="opacity:1;fill:#3498db"
         id="g4166"
         clip-path="url(#clipPath4160)">
        <g
           style="fill:#3498db"
           id="g4168"
           transform="translate(268.7715,387.145)">
          <path
             inkscape:connector-curvature="0"
             id="path4170"
             style="fill:#3498db;fill-opacity:1;fill-rule:nonzero;stroke:none"
             d="m 0,0 c -39.139,-12.496 -163.11,49.122 -153.408,-35.044 1.516,-12.515 9.577,-30.192 2.769,-41.876 -4.932,-8.75 -13.974,-13.877 -22.708,-17.279 -22.814,-9.275 -31.308,-26.682 -25.531,-51.526 15.454,-66.945 99.581,-51.069 143.745,-31.219 31.408,14.772 68.45,17.309 100.973,4.813 25.479,-10.175 41.362,-31.52 71.266,-25.267 26.521,5.322 30.523,30.36 22.779,53.668 -4.4,14.42 -7.559,20.513 1.168,34.432 7.353,13.824 20.297,24.299 21.293,40.494 0.217,17.541 -7.843,35.217 -23.442,41.861 -12.762,5.435 -24.331,3.241 -36.956,6.583 C 73.865,-12.468 55.818,31.165 20.98,16.159 12.294,12.059 7.406,2.61 -2.059,-0.142" />
        </g>
      </g>
      <g
         style="fill:#3498db"
         transform="matrix(1.25,0,0,-1.25,377.1537,259.13172)"
         id="g4184">
        <path
           d="M 0,0 C 3.547,0 3.547,5.5 0,5.5 -3.547,5.5 -3.547,0 0,0"
           style="fill:#3498db;fill-opacity:1;fill-rule:nonzero;stroke:none"
           id="path4186"
           inkscape:connector-curvature="0" />
      </g>
      <g
         style="fill:#3498db"
         transform="matrix(1.25,0,0,-1.25,173.48182,364.83484)"
         id="g4188">
        <path
           d="M 0,0 C 7.094,0 7.094,11 0,11 -7.094,11 -7.094,0 0,0"
           style="fill:#3498db;fill-opacity:1;fill-rule:nonzero;stroke:none"
           id="path4190"
           inkscape:connector-curvature="0" />
      </g>
      <g
         style="fill:#3498db"
         transform="matrix(1.25,0,0,-1.25,586.8412,419.66272)"
         id="g4192">
        <path
           d="M 0,0 C 7.094,0 7.094,11 0,11 -7.094,11 -7.094,0 0,0"
           style="fill:#3498db;fill-opacity:1;fill-rule:nonzero;stroke:none"
           id="path4194"
           inkscape:connector-curvature="0" />
      </g>
      <g
         style="fill:#3498db"
         transform="matrix(1.25,0,0,-1.25,353.95057,255.69422)"
         id="g4196">
        <path
           d="M 0,0 C 7.094,0 7.094,11 0,11 -7.094,11 -7.094,0 0,0"
           style="fill:#3498db;fill-opacity:1;fill-rule:nonzero;stroke:none"
           id="path4198"
           inkscape:connector-curvature="0" />
      </g>
      <g
         style="fill:#3498db"
         transform="matrix(1.25,0,0,-1.25,600.5912,397.83472)"
         id="g4200">
        <path
           d="M 0,0 C 9.222,0 9.222,14.3 0,14.3 -9.222,14.3 -9.222,0 0,0"
           style="fill:#3498db;fill-opacity:1;fill-rule:nonzero;stroke:none"
           id="path4202"
           inkscape:connector-curvature="0" />
      </g>
      <g
         style="fill:#3498db"
         transform="matrix(1.25,0,0,-1.25,150.27932,387.52222)"
         id="g4204">
        <path
           d="M 0,0 C 9.222,0 9.222,14.3 0,14.3 -9.222,14.3 -9.222,0 0,0"
           style="fill:#3498db;fill-opacity:1;fill-rule:nonzero;stroke:none"
           id="path4206"
           inkscape:connector-curvature="0" />
      </g>
      <g
         style="fill:#3498db"
         transform="matrix(1.25,0,0,-1.25,531.8412,280.10034)"
         id="g4208">
        <path
           d="M 0,0 C 9.222,0 9.222,14.3 0,14.3 -9.222,14.3 -9.222,0 0,0"
           style="fill:#3498db;fill-opacity:1;fill-rule:nonzero;stroke:none"
           id="path4210"
           inkscape:connector-curvature="0" />
      </g>
      <g
         style="fill:#3498db"
         transform="matrix(1.25,0,0,-1.25,373.7162,244.52234)"
         id="g4212">
        <path
           d="M 0,0 C 10.641,0 10.641,16.5 0,16.5 -10.64,16.5 -10.64,0 0,0"
           style="fill:#3498db;fill-opacity:1;fill-rule:nonzero;stroke:none"
           id="path4214"
           inkscape:connector-curvature="0" />
      </g>
      <g
         style="fill:#3498db"
         transform="matrix(1.25,0,0,-1.25,607.98257,413.99022)"
         id="g4216">
        <path
           d="M 0,0 C 5.32,0 5.32,8.25 0,8.25 -5.32,8.25 -5.32,0 0,0"
           style="fill:#3498db;fill-opacity:1;fill-rule:nonzero;stroke:none"
           id="path4218"
           inkscape:connector-curvature="0" />
      </g>
      <g
         style="fill:#3498db"
         transform="matrix(1.25,0,0,-1.25,147.8727,358.81922)"
         id="g4220">
        <path
           d="M 0,0 C 5.32,0 5.32,8.25 0,8.25 -5.32,8.25 -5.32,0 0,0"
           style="fill:#3498db;fill-opacity:1;fill-rule:nonzero;stroke:none"
           id="path4222"
           inkscape:connector-curvature="0" />
      </g>
      <g
         style="fill:#3498db"
         transform="matrix(1.25,0,0,-1.25,553.32557,290.06922)"
         id="g4224">
        <path
           d="M 0,0 C 5.32,0 5.32,8.25 0,8.25 -5.32,8.25 -5.32,0 0,0"
           style="fill:#3498db;fill-opacity:1;fill-rule:nonzero;stroke:none"
           id="path4226"
           inkscape:connector-curvature="0" />
      </g>
      <g
         style="fill:#3498db"
         transform="matrix(1.25,0,0,-1.25,551.60682,271.16297)"
         id="g4228">
        <path
           d="M 0,0 C 3.547,0 3.547,5.5 0,5.5 -3.547,5.5 -3.547,0 0,0"
           style="fill:#3498db;fill-opacity:1;fill-rule:nonzero;stroke:none"
           id="path4230"
           inkscape:connector-curvature="0" />
      </g>
      <g
         style="fill:#3498db"
         transform="matrix(1.25,0,0,-1.25,203.38907,259.30272)"
         id="g4232">
        <path
           d="M 0,0 C 7.094,0 7.094,11 0,11 -7.094,11 -7.094,0 0,0"
           style="fill:#3498db;fill-opacity:1;fill-rule:nonzero;stroke:none"
           id="path4234"
           inkscape:connector-curvature="0" />
      </g>
      <g
         style="fill:#3498db"
         transform="matrix(1.25,0,0,-1.25,594.57557,496.31984)"
         id="g4236">
        <path
           d="M 0,0 C 7.094,0 7.094,11 0,11 -7.094,11 -7.094,0 0,0"
           style="fill:#3498db;fill-opacity:1;fill-rule:nonzero;stroke:none"
           id="path4238"
           inkscape:connector-curvature="0" />
      </g>
      <g
         style="fill:#3498db"
         transform="matrix(1.25,0,0,-1.25,147.7012,502.33547)"
         id="g4240">
        <path
           d="M 0,0 C 7.094,0 7.094,11 0,11 -7.094,11 -7.094,0 0,0"
           style="fill:#3498db;fill-opacity:1;fill-rule:nonzero;stroke:none"
           id="path4242"
           inkscape:connector-curvature="0" />
      </g>
      <g
         style="fill:#3498db"
         transform="matrix(1.25,0,0,-1.25,224.01407,248.99022)"
         id="g4244">
        <path
           d="M 0,0 C 3.547,0 3.547,5.5 0,5.5 -3.547,5.5 -3.547,0 0,0"
           style="fill:#3498db;fill-opacity:1;fill-rule:nonzero;stroke:none"
           id="path4246"
           inkscape:connector-curvature="0" />
      </g>
      <g
         style="fill:#3498db"
         transform="matrix(1.25,0,0,-1.25,595.43495,468.81984)"
         id="g4248">
        <path
           d="M 0,0 C 3.547,0 3.547,5.5 0,5.5 -3.547,5.5 -3.547,0 0,0"
           style="fill:#3498db;fill-opacity:1;fill-rule:nonzero;stroke:none"
           id="path4250"
           inkscape:connector-curvature="0" />
      </g>
      <g
         style="fill:#3498db"
         transform="matrix(1.25,0,0,-1.25,168.32557,510.92922)"
         id="g4252">
        <path
           d="M 0,0 C 3.547,0 3.547,5.5 0,5.5 -3.547,5.5 -3.547,0 0,0"
           style="fill:#3498db;fill-opacity:1;fill-rule:nonzero;stroke:none"
           id="path4254"
           inkscape:connector-curvature="0" />
      </g>
      <g
         transform="matrix(1.25,0,0,-1.25,266.4682,395.1761)"
         id="g4256">
        <path
           inkscape:connector-curvature="0"
           id="path4258"
           style="fill:#1c1c1b;fill-opacity:1;fill-rule:nonzero;stroke:none"
           d="m 0,0 c -3.705,-1.309 -6.151,-1.559 -8.049,2.188 -1.462,2.886 -2.437,5.865 -4.277,8.566 -3.988,5.855 -7.85,6.247 -14.236,5.413 -6.338,-0.827 -14.984,0.792 -15.946,8.121 -0.685,5.224 -0.725,10.027 -3.013,14.914 -1.126,2.407 -4.682,0.312 -3.561,-2.082 2.537,-5.423 1.428,-11.326 3.285,-16.849 1.883,-5.604 8.157,-7.411 13.43,-8.041 3.985,-0.475 7.474,0.486 11.381,0.482 4.196,-0.005 7.061,-7.203 8.391,-10.362 2.772,-6.588 6.699,-8.798 13.692,-6.328 C 3.587,-3.098 2.515,0.888 0,0" />
      </g>
      <g
         transform="matrix(1.25,0,0,-1.25,211.97795,339.21472)"
         id="g4260">
        <path
           inkscape:connector-curvature="0"
           id="path4262"
           style="fill:#1c1c1b;fill-opacity:1;fill-rule:nonzero;stroke:none"
           d="m 0,0 c -1.235,-1.618 -2.745,-2.628 -4.542,-3.533 -1.901,-0.958 -0.229,-3.804 1.666,-2.85 2.336,1.177 4.135,2.634 5.726,4.717 C 3.397,-0.949 2.962,0.179 2.258,0.592 1.409,1.088 0.545,0.713 0,0" />
      </g>
      <g
         transform="matrix(1.25,0,0,-1.25,204.59207,333.72522)"
         id="g4264">
        <path
           inkscape:connector-curvature="0"
           id="path4266"
           style="fill:#1c1c1b;fill-opacity:1;fill-rule:nonzero;stroke:none"
           d="m 0,0 c 0.009,-3.489 0.518,-6.959 0.55,-10.45 0.019,-2.127 3.319,-2.129 3.3,0 C 3.818,-6.959 3.309,-3.489 3.3,0 3.294,2.128 -0.006,2.128 0,0" />
      </g>
      <g
         transform="matrix(1.25,0,0,-1.25,197.63407,337.93359)"
         id="g4268">
        <path
           inkscape:connector-curvature="0"
           id="path4270"
           style="fill:#1c1c1b;fill-opacity:1;fill-rule:nonzero;stroke:none"
           d="m 0,0 c 2.208,-2.76 4.45,-5.514 7.483,-7.408 1.811,-1.13 3.466,1.726 1.666,2.85 C 6.38,-2.829 4.347,-0.184 2.333,2.333 1.003,3.995 -1.315,1.644 0,0" />
      </g>
      <g
         transform="matrix(1.25,0,0,-1.25,194.19657,344.12022)"
         id="g4272">
        <path
           inkscape:connector-curvature="0"
           id="path4274"
           style="fill:#1c1c1b;fill-opacity:1;fill-rule:nonzero;stroke:none"
           d="m 0,0 c 3.07,-2.903 6.897,-3.865 10.955,-2.625 2.029,0.62 1.163,3.806 -0.877,3.183 C 7.148,-0.338 4.575,0.214 2.333,2.333 0.789,3.794 -1.549,1.464 0,0" />
      </g>
      <g
         transform="matrix(1.25,0,0,-1.25,477.35757,407.97459)"
         id="g4276">
        <path
           inkscape:connector-curvature="0"
           id="path4278"
           style="fill:#1c1c1b;fill-opacity:1;fill-rule:nonzero;stroke:none"
           d="m 0,0 c 0.148,5.391 1.95,7.189 7.154,7.613 3.381,0.276 6.811,0.23 10.155,0.852 5.103,0.951 5.008,7.991 6.983,11.623 3.016,5.55 11.118,4.96 16.347,6.599 5.76,1.806 7.971,6.683 8.311,12.363 0.159,2.658 -3.967,2.643 -4.125,0 C 44.319,30.6 38.122,30.306 31.315,28.905 25.315,27.671 21.252,24.382 19.166,18.6 18.513,16.791 18.354,13.018 16.212,12.443 12.724,11.507 8.709,11.935 5.12,11.546 -1.624,10.815 -3.948,6.4 -4.125,0 -4.198,-2.662 -0.073,-2.654 0,0" />
      </g>
      <g
         transform="matrix(1.25,0,0,-1.25,526.4152,352.83534)"
         id="g4280">
        <path
           inkscape:connector-curvature="0"
           id="path4282"
           style="fill:#1c1c1b;fill-opacity:1;fill-rule:nonzero;stroke:none"
           d="M 0,0 C 1.41,-3.362 3.84,-5.793 7.203,-7.203 8.034,-7.551 9.018,-6.833 9.232,-6.05 9.494,-5.099 8.909,-4.368 8.08,-4.02 5.911,-3.111 4.092,-1.292 3.182,0.877 2.834,1.706 2.104,2.292 1.152,2.03 0.369,1.814 -0.349,0.831 0,0" />
      </g>
      <g
         transform="matrix(1.25,0,0,-1.25,532.52845,347.47522)"
         id="g4284">
        <path
           inkscape:connector-curvature="0"
           id="path4286"
           style="fill:#1c1c1b;fill-opacity:1;fill-rule:nonzero;stroke:none"
           d="m 0,0 0,-8.25 c 0,-2.128 3.301,-2.128 3.301,0 l 0,8.25 C 3.301,2.128 0,2.128 0,0" />
      </g>
      <g
         transform="matrix(1.25,0,0,-1.25,539.47795,348.30172)"
         id="g4288">
        <path
           inkscape:connector-curvature="0"
           id="path4290"
           style="fill:#1c1c1b;fill-opacity:1;fill-rule:nonzero;stroke:none"
           d="m 0,0 c -1,-2.885 -2.727,-5.056 -5.076,-6.972 -1.65,-1.346 0.7,-3.666 2.334,-2.333 2.797,2.282 4.74,5.014 5.924,8.428 C 3.881,1.139 0.692,1.998 0,0" />
      </g>
      <g
         transform="matrix(1.25,0,0,-1.25,544.4987,352.62172)"
         id="g4292">
        <path
           inkscape:connector-curvature="0"
           id="path4294"
           style="fill:#1c1c1b;fill-opacity:1;fill-rule:nonzero;stroke:none"
           d="m 0,0 c -1.437,-2.279 -3.709,-3.735 -6.164,-4.742 -1.941,-0.796 -1.093,-3.989 0.877,-3.182 3.288,1.348 6.206,3.197 8.137,6.258 C 3.988,0.14 1.132,1.794 0,0" />
      </g>
      <g
         transform="matrix(1.25,0,0,-1.25,501.93882,482.68222)"
         id="g4296">
        <path
           inkscape:connector-curvature="0"
           id="path4298"
           style="fill:#b4b4b4;fill-opacity:1;fill-rule:nonzero;stroke:none"
           d="m 0,0 c 0,-2.886 -21.604,-3.724 -23.939,-3.724 l -161.677,0 c -2.332,0 -23.94,0.838 -23.94,3.724 l 19.715,29.552 c 0,2.886 1.893,5.225 4.225,5.225 l 161.677,0 c 2.335,0 4.225,-2.339 4.225,-5.225 L 0,0 Z" />
      </g>
      <g
         transform="matrix(1.25,0,0,-1.25,329.40582,474.45347)"
         id="g4300">
        <path
           inkscape:connector-curvature="0"
           id="path4302"
           style="fill:#3c3c3a;fill-opacity:1;fill-rule:nonzero;stroke:none"
           d="m 0,0 -41.552,0 7.271,17.6 37.582,0 L 0,0 Z" />
      </g>
      <g
         transform="matrix(1.25,0,0,-1.25,412.5272,474.45347)"
         id="g4304">
        <path
           inkscape:connector-curvature="0"
           id="path4306"
           style="fill:#3c3c3a;fill-opacity:1;fill-rule:nonzero;stroke:none"
           d="m 0,0 41.552,0 -7.273,17.6 -37.58,0 L 0,0 Z" />
      </g>
      <g
         transform="matrix(1.25,0,0,-1.25,470.23957,474.45347)"
         id="g4308">
        <path
           inkscape:connector-curvature="0"
           id="path4310"
           style="fill:#3c3c3a;fill-opacity:1;fill-rule:nonzero;stroke:none"
           d="M 0,0 14.632,0 2.659,17.6 -8.379,17.6 0,0 Z" />
      </g>
      <g
         transform="matrix(1.25,0,0,-1.25,271.69595,474.45347)"
         id="g4312">
        <path
           inkscape:connector-curvature="0"
           id="path4314"
           style="fill:#3c3c3a;fill-opacity:1;fill-rule:nonzero;stroke:none"
           d="M 0,0 -14.633,0 -2.659,17.6 8.377,17.6 0,0 Z" />
      </g>
      <g
         transform="matrix(1.25,0,0,-1.25,407.95807,474.45347)"
         id="g4316">
        <path
           inkscape:connector-curvature="0"
           id="path4318"
           style="fill:#3c3c3a;fill-opacity:1;fill-rule:nonzero;stroke:none"
           d="m 0,0 -59.188,0 3.3,17.6 52.588,0 L 0,0 Z" />
      </g>
      <path
         inkscape:connector-curvature="0"
         id="path4320"
         style="fill:#b4b4b4;fill-opacity:1;fill-rule:nonzero;stroke:none"
         d="m 484.01607,459.83647 -226.0975,0 0,-3.3675 226.0975,0 0,3.3675 z" />
      <path
         inkscape:connector-curvature="0"
         id="path4322"
         style="fill:#b4b4b4;fill-opacity:1;fill-rule:nonzero;stroke:none"
         d="m 486.46732,468.08647 -231,0 0,-3.3675 231,0 0,3.3675 z" />
      <g
         transform="matrix(1.25,0,0,-1.25,503.32182,491.23809)"
         id="g4324">
        <path
           inkscape:connector-curvature="0"
           id="path4326"
           style="fill:#3c3c3a;fill-opacity:1;fill-rule:nonzero;stroke:none"
           d="m 0,0 c 0,-2.333 -0.483,-4.224 -2.814,-4.224 l -206.139,0 c -2.335,0 -2.816,1.891 -2.816,4.224 l 0,3.622 c 0,2.333 0.481,4.224 2.816,4.224 l 206.139,0 C -0.483,7.846 0,5.955 0,3.622 L 0,0 Z" />
      </g>
      <g
         transform="matrix(1.25,0,0,-1.25,419.26307,489.10059)"
         id="g4328">
        <path
           inkscape:connector-curvature="0"
           id="path4330"
           style="fill:#707070;fill-opacity:1;fill-rule:nonzero;stroke:none"
           d="m 0,0 c 0,-1.215 -0.984,-2.2 -2.199,-2.2 l -72.875,0 c -1.216,0 -2.2,0.985 -2.2,2.2 0,1.215 0.984,2.2 2.2,2.2 l 72.875,0 C -0.984,2.2 0,1.215 0,0" />
      </g>
      <g
         transform="matrix(1.25,0,0,-1.25,479.9357,440.75597)"
         id="g4332">
        <path
           inkscape:connector-curvature="0"
           id="path4334"
           style="fill:#3c3c3a;fill-opacity:1;fill-rule:nonzero;stroke:none"
           d="m 0,0 c 0,-2.333 -1.891,-4.226 -4.226,-4.226 l -165.899,0 c -2.334,0 -4.226,1.893 -4.226,4.226 l 0,108.233 c 0,2.333 1.892,4.225 4.226,4.225 l 165.899,0 c 2.335,0 4.226,-1.892 4.226,-4.225 L 0,0 Z" />
      </g>
      <g
         transform="matrix(1.25,0,0,-1.25,370.9672,307.52959)"
         id="g4336">
        <path
           inkscape:connector-curvature="0"
           id="path4338"
           style="fill:#ffffff;fill-opacity:1;fill-rule:nonzero;stroke:none"
           d="M 0,0 C 2.271,0 2.271,3.521 0,3.521 -2.271,3.521 -2.271,0 0,0" />
      </g>
      <g
         transform="matrix(1.25,0,0,-1.25,464.68057,432.25184)"
         id="g4340">
        <path
           inkscape:connector-curvature="0"
           id="path4342"
           style="fill:#ffffff;fill-opacity:1;fill-rule:nonzero;stroke:none"
           d="m 0,0 c 0,-2.007 -1.627,-3.634 -3.632,-3.634 l -142.677,0 c -2.005,0 -3.634,1.627 -3.634,3.634 l 0,93.077 c 0,2.007 1.629,3.634 3.634,3.634 l 142.677,0 C -1.627,96.711 0,95.084 0,93.077 L 0,0 Z" />
      </g>
      <g
         transform="matrix(1.25,0,0,-1.25,343.6832,358.52147)"
         id="g4344">
        <path
           inkscape:connector-curvature="0"
           id="path4346"
           style="fill:none;stroke:#325975;stroke-width:3.29999995;stroke-linecap:round;stroke-linejoin:round;stroke-miterlimit:10;stroke-dasharray:none;stroke-opacity:1"
           d="M 0,0 -12.446,-12.444" />
      </g>
      <g
         transform="matrix(1.25,0,0,-1.25,343.6832,374.07922)"
         id="g4348">
        <path
           inkscape:connector-curvature="0"
           id="path4350"
           style="fill:none;stroke:#325975;stroke-width:3.29999995;stroke-linecap:round;stroke-linejoin:round;stroke-miterlimit:10;stroke-dasharray:none;stroke-opacity:1"
           d="M 0,0 -12.445,12.445" />
      </g>
      <g
         transform="matrix(1.25,0,0,-1.25,413.8077,358.52147)"
         id="g4352">
        <path
           inkscape:connector-curvature="0"
           id="path4354"
           style="fill:none;stroke:#325975;stroke-width:3.29999995;stroke-linecap:round;stroke-linejoin:round;stroke-miterlimit:10;stroke-dasharray:none;stroke-opacity:1"
           d="M 0,0 -12.446,-12.444" />
      </g>
      <g
         transform="matrix(1.25,0,0,-1.25,413.8077,374.07922)"
         id="g4356">
        <path
           inkscape:connector-curvature="0"
           id="path4358"
           style="fill:none;stroke:#325975;stroke-width:3.29999995;stroke-linecap:round;stroke-linejoin:round;stroke-miterlimit:10;stroke-dasharray:none;stroke-opacity:1"
           d="M 0,0 -12.444,12.445" />
      </g>
      <g
         transform="matrix(1.25,0,0,-1.25,406.82532,392.84997)"
         id="g4360">
        <path
           inkscape:connector-curvature="0"
           id="path4362"
           style="fill:#f29bb4;fill-opacity:1;fill-rule:nonzero;stroke:none"
           d="m 0,0 0,-12.283 c 0,-2.431 -1.971,-4.401 -4.4,-4.401 l -2.373,0 c -2.43,0 -4.401,1.97 -4.401,4.401 l 0,12.283" />
      </g>
      <g
         transform="matrix(1.25,0,0,-1.25,402.25382,393.65197)"
         id="g4364">
        <path
           inkscape:connector-curvature="0"
           id="path4366"
           style="fill:#ef82a2;fill-opacity:1;fill-rule:nonzero;stroke:none"
           d="M 0,0 -1.93,-14.3 -3.859,0 0,0 Z" />
      </g>
      <g
         transform="matrix(1.25,0,0,-1.25,324.3497,392.83297)"
         id="g4368">
        <path
           inkscape:connector-curvature="0"
           id="path4370"
           style="fill:none;stroke:#325975;stroke-width:2.75;stroke-linecap:round;stroke-linejoin:round;stroke-miterlimit:10;stroke-dasharray:none;stroke-opacity:1"
           d="M 0,0 74.587,0" />
      </g>
      <g
         transform="matrix(1.25,0,0,-1.25,309.0922,390.55872)"
         id="g4372">
        <path
           inkscape:connector-curvature="0"
           id="path4374"
           style="fill:#f7c3d2;fill-opacity:1;fill-rule:nonzero;stroke:none"
           d="M 0,0 C 7.094,0 7.094,11 0,11 -7.094,11 -7.094,0 0,0" />
      </g>
      <g
         transform="matrix(1.25,0,0,-1.25,432.8422,390.55872)"
         id="g4376">
        <path
           inkscape:connector-curvature="0"
           id="path4378"
           style="fill:#f7c3d2;fill-opacity:1;fill-rule:nonzero;stroke:none"
           d="M 0,0 C 7.094,0 7.094,11 0,11 -7.094,11 -7.094,0 0,0" />
      </g>
      <g
         transform="matrix(1.25,0,0,-1.25,444.5292,282.16272)"
         id="g4380">
        <path
           inkscape:connector-curvature="0"
           id="path4382"
           style="fill:#f29101;fill-opacity:1;fill-rule:nonzero;stroke:none"
           d="m 0,0 0,-36.3 c 0,-3.547 5.5,-3.547 5.5,0 L 5.5,0 C 5.5,3.547 0,3.547 0,0" />
      </g>
      <g
         transform="matrix(1.25,0,0,-1.25,447.9667,345.06922)"
         id="g4384">
        <path
           inkscape:connector-curvature="0"
           id="path4386"
           style="fill:#f29101;fill-opacity:1;fill-rule:nonzero;stroke:none"
           d="M 0,0 C 5.32,0 5.32,8.25 0,8.25 -5.32,8.25 -5.32,0 0,0" />
      </g>
      <g
         style="fill:#3498db"
         transform="matrix(1.25,0,0,-1.25,58.928573,750.57647)"
         id="g4396">
        <g
           style="fill:#3498db"
           clip-path="url(#clipPath4400)"
           id="g4398">
          <g
             style="fill:#3498db"
             transform="translate(323.1504,158.1807)"
             id="g4404">
            <path
               inkscape:connector-curvature="0"
               id="path4406"
               style="fill:#3498db;fill-opacity:1;fill-rule:nonzero;stroke:none"
               d="m 0,0 c 0,-4.859 -3.939,-8.8 -8.801,-8.8 l -128.699,0 c -4.861,0 -8.801,3.941 -8.801,8.8 l 0,17.6 c 0,4.86 3.94,8.8 8.801,8.8 l 128.699,0 C -3.939,26.4 0,22.46 0,17.6 L 0,0 Z" />
          </g>
        </g>
      </g>
      <g
         id="text4408"
         style="font-variant:normal;font-weight:500;font-stretch:normal;font-size:30.25px;font-family:'Asap Medium';-inkscape-font-specification:Asap-Medium;writing-mode:lr-tb;fill:#ffffff;fill-opacity:1;fill-rule:nonzero;stroke:none">
        <path
           d="m 439.49481,544.18878 0,8.98047 -2.51098,0 0,-21.59448 5.92297,0 q 3.97327,0 5.86389,1.52136 1.9054,1.52136 1.9054,4.57886 0,4.28345 -4.34253,5.79004 l 5.86389,9.70422 -2.96887,0 -5.22876,-8.98047 -4.50501,0 z m 0,-2.15649 3.44153,0 q 2.65869,0 3.89941,-1.04871 1.24073,-1.06348 1.24073,-3.17566 0,-2.14172 -1.27027,-3.08703 -1.25549,-0.94532 -4.04712,-0.94532 l -3.26428,0 0,8.25672 z m -7.34094,0.31018 q 0,5.18445 -2.62915,8.15332 -2.61438,2.96887 -7.28186,2.96887 -4.77088,0 -7.37048,-2.90979 -2.58484,-2.92456 -2.58484,-8.24194 0,-5.27307 2.59961,-8.16809 2.59961,-2.90979 7.38525,-2.90979 4.65271,0 7.26709,2.9541 2.61438,2.9541 2.61438,8.15332 z m -17.20764,0 q 0,4.38684 1.86108,6.6615 1.87586,2.25988 5.43555,2.25988 3.58923,0 5.42078,-2.25988 1.83154,-2.25989 1.83154,-6.6615 0,-4.3573 -1.83154,-6.60242 -1.81678,-2.25989 -5.39124,-2.25989 -3.58923,0 -5.46509,2.27466 -1.86108,2.25989 -1.86108,6.58765 z m -17.75415,1.84631 0,8.98047 -2.51099,0 0,-21.59448 5.92297,0 q 3.97327,0 5.8639,1.52136 1.90539,1.52136 1.90539,4.57886 0,4.28345 -4.34253,5.79004 l 5.86389,9.70422 -2.96887,0 -5.22876,-8.98047 -4.505,0 z m 0,-2.15649 3.44153,0 q 2.65869,0 3.89941,-1.04871 1.24072,-1.06348 1.24072,-3.17566 0,-2.14172 -1.27026,-3.08703 -1.25549,-0.94532 -4.04712,-0.94532 l -3.26428,0 0,8.25672 z m -18.72901,2.15649 0,8.98047 -2.51098,0 0,-21.59448 5.92297,0 q 3.97327,0 5.86389,1.52136 1.9054,1.52136 1.9054,4.57886 0,4.28345 -4.34253,5.79004 l 5.86389,9.70422 -2.96887,0 -5.22876,-8.98047 -4.50501,0 z m 0,-2.15649 3.44153,0 q 2.65869,0 3.89942,-1.04871 1.24072,-1.06348 1.24072,-3.17566 0,-2.14172 -1.27026,-3.08703 -1.2555,-0.94532 -4.04712,-0.94532 l -3.26429,0 0,8.25672 z m -7.3114,11.13696 -12.03796,0 0,-21.59448 12.03796,0 0,2.23034 -9.52698,0 0,6.95691 8.95093,0 0,2.21558 -8.95093,0 0,7.94653 9.52698,0 0,2.24512 z m -23.32263,-4.47546 -2.59961,0 0,4.47546 -4.46069,0 0,-4.47546 -9.2168,0 0,-3.17566 9.4679,-13.94336 4.20959,0 0,13.57409 2.59961,0 0,3.54493 z m -7.0603,-3.54493 0,-3.66308 q 0,-0.91577 0.0738,-2.65869 0.0739,-1.74292 0.11816,-2.02356 l -0.11816,0 q -0.54651,1.21118 -1.31457,2.36328 l -3.9585,5.98205 5.19922,0 z m -10.79724,-2.77685 q 0,5.6571 -1.86109,8.37488 -1.84631,2.71777 -5.70141,2.71777 -3.73694,0 -5.64234,-2.8064 -1.89062,-2.80639 -1.89062,-8.28625 0,-5.71619 1.84631,-8.41919 1.84631,-2.71777 5.68665,-2.71777 3.73694,0 5.64233,2.83593 1.92017,2.83594 1.92017,8.30103 z m -10.56092,0 q 0,3.97327 0.67945,5.70142 0.69421,1.71337 2.31897,1.71337 1.59521,0 2.3042,-1.74292 0.70898,-1.74292 0.70898,-5.67187 0,-3.97327 -0.72375,-5.70142 -0.70899,-1.74292 -2.28943,-1.74292 -1.60999,0 -2.3042,1.74292 -0.69422,1.72815 -0.69422,5.70142 z m -6.08545,6.32178 -2.59961,0 0,4.47546 -4.46069,0 0,-4.47546 -9.2168,0 0,-3.17566 9.4679,-13.94336 4.20959,0 0,13.57409 2.59961,0 0,3.54493 z m -7.0603,-3.54493 0,-3.66308 q 0,-0.91577 0.0738,-2.65869 0.0739,-1.74292 0.11817,-2.02356 l -0.11817,0 q -0.5465,1.21118 -1.31457,2.36328 l -3.9585,5.98205 5.19922,0 z"
           style="font-style:normal;font-variant:normal;font-weight:normal;font-stretch:normal;font-family:'Open Sans';-inkscape-font-specification:'Open Sans'"
           id="path5631"
           inkscape:connector-curvature="0" />
      </g>
    </g>
    <text
       xml:space="preserve"
       style="font-style:normal;font-weight:normal;font-size:40px;line-height:125%;font-family:sans-serif;letter-spacing:0px;word-spacing:0px;fill:#000000;fill-opacity:1;stroke:none;stroke-width:1px;stroke-linecap:butt;stroke-linejoin:miter;stroke-opacity:1"
       x="269.71072"
       y="595.77325"
       id="text5341"
       sodipodi:linespacing="125%"><tspan
         sodipodi:role="line"
         id="tspan5343"
         x="269.71072"
         y="595.77325" /></text>
  </g>
</svg>
