<svg width="35" height="32" viewBox="0 0 35 32" fill="none" xmlns="http://www.w3.org/2000/svg">
<path d="M29.629 3.06973C27.3982 1.88031 25.006 1.004 22.5049 0.502105C22.4593 0.492419 22.4138 0.516626 22.3903 0.565041C22.0827 1.20088 21.7419 2.03039 21.5033 2.68239C18.8131 2.21439 16.1367 2.21439 13.5017 2.68239C13.263 2.0159 12.9099 1.20088 12.6008 0.565041C12.5774 0.518241 12.5319 0.494034 12.4863 0.502105C9.98654 1.0024 7.59436 1.87871 5.3622 3.06973C5.34287 3.07941 5.32631 3.09557 5.31532 3.11653C0.777863 10.9937 -0.465136 18.6772 0.144638 26.2655C0.147397 26.3027 0.165331 26.3382 0.190164 26.3607C3.18385 28.9154 6.08374 30.4664 8.92978 31.4943C8.97533 31.5105 9.02359 31.4911 9.05258 31.4475C9.72581 30.3792 10.3259 29.2528 10.8405 28.0682C10.8709 27.9988 10.8419 27.9165 10.7798 27.889C9.8279 27.4694 8.9215 26.9578 8.04961 26.3769C7.98064 26.3301 7.97512 26.2155 8.03856 26.1606C8.22204 26.0008 8.40557 25.8346 8.58077 25.6668C8.61246 25.6361 8.65663 25.6296 8.6939 25.649C14.4219 28.6879 20.6231 28.6879 26.2835 25.649C26.3207 25.628 26.3649 25.6345 26.398 25.6652C26.5732 25.833 26.7567 26.0008 26.9416 26.1606C27.005 26.2155 27.0009 26.3301 26.9319 26.3769C26.06 26.9691 25.1536 27.4694 24.2003 27.8874C24.1383 27.9149 24.1107 27.9988 24.141 28.0682C24.6666 29.2511 25.2667 30.3776 25.9276 31.4459C25.9552 31.4911 26.0048 31.5105 26.0504 31.4943C28.9102 30.4664 31.8101 28.9154 34.8038 26.3607C34.83 26.3382 34.8465 26.3043 34.8493 26.2671C35.5791 17.4942 33.627 9.8737 29.6745 3.11813C29.6648 3.09557 29.6483 3.07941 29.629 3.06973ZM11.6959 21.6451C9.97135 21.6451 8.5504 19.8053 8.5504 17.5459C8.5504 15.2865 9.9438 13.4468 11.6959 13.4468C13.4617 13.4468 14.8689 15.3027 14.8413 17.5459C14.8413 19.8053 13.4479 21.6451 11.6959 21.6451ZM23.3257 21.6451C21.6012 21.6451 20.1803 19.8053 20.1803 17.5459C20.1803 15.2865 21.5736 13.4468 23.3257 13.4468C25.0915 13.4468 26.4987 15.3027 26.4711 17.5459C26.4711 19.8053 25.0915 21.6451 23.3257 21.6451Z" fill="white"/>
</svg>
