<svg width="35" height="32" viewBox="0 0 35 32" fill="none" xmlns="http://www.w3.org/2000/svg">
<path d="M7.38752 14.7553C7.31256 14.9152 7.27399 15.0866 7.27402 15.2597L7.27461 23.4749C7.27431 23.7439 7.16234 24.0034 6.96002 24.2041C6.75769 24.4047 6.47916 24.5323 6.17746 24.5628C5.48431 24.6349 4.90124 24.6865 4.4329 24.723C4.01372 24.7562 3.59255 24.6827 3.21886 24.5112C2.84517 24.3397 2.53448 24.0772 2.3233 23.7547C0.791975 21.3965 -0.0094428 18.7219 8.39548e-05 16.0013C-0.00086916 7.40348 8.0178 0.385922 17.7204 0.501405C21.3185 0.545336 24.8135 1.5729 27.7275 3.44359C30.6415 5.31429 32.8322 7.93679 34.0001 10.9525C34.1338 11.2973 34.1692 11.6661 34.103 12.026C34.0368 12.3858 33.8711 12.7256 33.6206 13.0149C31.8945 15.008 29.7194 16.6656 27.5732 18.0437V8.68836C27.5732 8.33932 27.4167 8.00459 27.1381 7.75779C26.8595 7.51099 26.4817 7.37234 26.0878 7.37234H23.6122C23.4172 7.37235 23.224 7.4064 23.0438 7.47255C22.8637 7.53869 22.6999 7.63563 22.562 7.75783C22.4241 7.88004 22.3148 8.02511 22.2401 8.18477C22.1655 8.34443 22.1271 8.51555 22.1271 8.68836V20.0495C22.1269 20.2653 22.055 20.4762 21.9204 20.656C21.7858 20.8357 21.5945 20.9764 21.3702 21.0605C20.7663 21.2863 20.1468 21.5086 20.1468 21.5086V11.979C20.1468 11.6299 19.9903 11.2952 19.7118 11.0483C19.4332 10.8015 19.0554 10.6627 18.6615 10.6627H16.1859C15.7919 10.6627 15.4141 10.8014 15.1356 11.0483C14.857 11.2951 14.7005 11.6299 14.7006 11.979V22.2464C14.7005 22.4936 14.6062 22.7334 14.433 22.9271C14.2598 23.1208 14.0179 23.2571 13.7464 23.3137C13.3554 23.3949 12.9984 23.4728 12.7201 23.5459V15.2685C12.7201 14.9194 12.5636 14.5847 12.2851 14.3379C12.0065 14.0911 11.6287 13.9525 11.2348 13.9525L8.76422 13.9453C8.56883 13.9445 8.37518 13.9779 8.19441 14.0436C8.01364 14.1093 7.84929 14.206 7.71082 14.3281C7.57235 14.4502 7.46248 14.5954 7.38752 14.7553Z" fill="white"/>
<path d="M7.22004 28.5347C9.82933 30.2165 12.9132 31.2262 16.1298 31.4517C19.3466 31.6772 22.571 31.1099 25.4465 29.8125C28.3219 28.5151 30.7362 26.5382 32.4223 24.1005C34.1084 21.6628 35.0005 18.8594 35 16.0004C35 15.6435 34.9813 15.2906 34.9544 14.9396C28.5636 23.3843 16.7635 27.3325 7.22004 28.5347Z" fill="white"/>
</svg>
