<svg width="35" height="32" viewBox="0 0 35 32" fill="none" xmlns="http://www.w3.org/2000/svg">
<path fill-rule="evenodd" clip-rule="evenodd" d="M17.5839 8.48099e-06C13.4096 -0.00395365 9.37014 1.38047 6.18953 3.90518C3.00892 6.4299 0.895023 9.92987 0.226661 13.7779C-0.441701 17.6259 0.37916 21.5704 2.54214 24.9046C4.70512 28.2387 8.06884 30.7446 12.0305 31.973C12.9147 32.1241 13.2274 31.6105 13.2274 31.1775C13.2274 30.7445 13.2274 29.7576 13.2274 28.388C8.32103 29.385 7.28584 26.1826 7.28584 26.1826C6.96034 25.1901 6.26884 24.3374 5.33406 23.7759C3.74891 22.7688 5.46346 22.7688 5.46346 22.7688C6.01912 22.8421 6.54964 23.0325 7.01483 23.3257C7.48003 23.6188 7.8677 24.0069 8.1485 24.4606C8.38709 24.8647 8.70877 25.2207 9.09506 25.5083C9.48136 25.796 9.92467 26.0095 10.3996 26.1368C10.8745 26.264 11.3716 26.3024 11.8624 26.2498C12.3532 26.1972 12.8281 26.0546 13.2598 25.8302C13.3275 25.0018 13.7099 24.2232 14.3381 23.6349C10.4346 23.222 6.33691 21.8122 6.33691 15.5787C6.3101 13.9503 6.95487 12.3747 8.13772 11.178C7.61091 9.76213 7.67248 8.21318 8.31025 6.83771C8.31025 6.83771 9.78756 6.39462 13.1412 8.51944C16.0209 7.78105 19.0606 7.78105 21.9403 8.51944C25.2939 6.39462 26.7605 6.83771 26.7605 6.83771C27.4071 8.19862 27.4841 9.73647 26.9761 11.1478C28.159 12.3444 28.8038 13.9201 28.777 15.5485C28.777 21.8524 24.6685 23.2321 20.7542 23.6047C21.1739 23.9987 21.498 24.4724 21.7045 24.9936C21.911 25.5149 21.9951 26.0715 21.9511 26.6257C21.9511 28.8211 21.9511 30.5934 21.9511 31.1271C21.9511 31.6609 22.2638 32.0737 23.1589 31.9126C27.0754 30.6518 30.3887 28.1388 32.5135 24.8176C34.6383 21.4964 35.4378 17.5808 34.7708 13.7625C34.1037 9.94418 32.0131 6.4689 28.8682 3.95059C25.7233 1.43229 21.7265 0.033028 17.5839 8.48099e-06Z" fill="white"/>
</svg>
