<svg width="35" height="32" viewBox="0 0 35 32" fill="none" xmlns="http://www.w3.org/2000/svg">
<path d="M35 4.16972C33.7122 4.79215 32.3283 5.21283 30.8758 5.40203C32.3584 4.43343 33.4969 2.89974 34.0331 1.07234C32.6457 1.96909 31.1089 2.6204 29.4733 2.97146C28.1634 1.45046 26.2972 0.5 24.2319 0.5C20.2662 0.5 17.051 4.00396 17.051 8.32583C17.051 8.9392 17.1147 9.53652 17.237 10.1093C11.2692 9.78292 5.97813 6.66727 2.43652 1.93253C1.81843 3.08838 1.46432 4.43273 1.46432 5.86694C1.46432 8.58201 2.73212 10.9774 4.65886 12.3808C3.48169 12.3402 2.37456 11.9882 1.40632 11.402C1.40581 11.4347 1.40581 11.4674 1.40581 11.5004C1.40581 15.2922 3.88099 18.4553 7.16592 19.1741C6.56332 19.353 5.92897 19.4486 5.274 19.4486C4.81133 19.4486 4.36146 19.3996 3.92311 19.3082C4.83681 22.4174 7.48866 24.68 10.6308 24.7432C8.17332 26.8421 5.07711 28.0933 1.71294 28.0933C1.13338 28.0933 0.561762 28.0563 0 27.984C3.17777 30.2045 6.95225 31.5 11.0074 31.5C24.2152 31.5 31.4377 19.575 31.4377 9.23332C31.4377 8.89399 31.4307 8.55647 31.4169 8.22091C32.8198 7.11752 34.0373 5.73913 35 4.16972Z" fill="white"/>
</svg>
